<svg xmlns="http://www.w3.org/2000/svg" viewBox="0 0 64 64" fill="none">
  <defs>
    <linearGradient id="bg" x1="8" y1="8" x2="56" y2="56" gradientUnits="userSpaceOnUse">
      <stop stop-color="#e8f5ec"/>
      <stop offset="1" stop-color="#f6eaf1"/>
    </linearGradient>
    <linearGradient id="fur" x1="20" y1="18" x2="44" y2="48" gradientUnits="userSpaceOnUse">
      <stop stop-color="#fff4e0"/>
      <stop offset="1" stop-color="#e8b060"/>
    </linearGradient>
  </defs>
  <rect width="64" height="64" rx="14" fill="url(#bg)"/>
  <!-- ears -->
  <ellipse cx="22" cy="24" rx="10" ry="9" fill="url(#fur)"/>
  <ellipse cx="42" cy="24" rx="10" ry="9" fill="url(#fur)"/>
  <!-- face -->
  <circle cx="32" cy="32" r="16" fill="url(#fur)"/>
  <!-- snout -->
  <ellipse cx="32" cy="36" rx="12" ry="10" fill="#fff8f0"/>
  <!-- eyes -->
  <circle cx="27" cy="30" r="2.5" fill="#3d3548"/>
  <circle cx="37" cy="30" r="2.5" fill="#3d3548"/>
  <circle cx="27.6" cy="29.2" r="0.9" fill="#fff"/>
  <circle cx="37.6" cy="29.2" r="0.9" fill="#fff"/>
  <!-- nose -->
  <ellipse cx="32" cy="36" rx="4" ry="3" fill="#2a2420"/>
  <!-- health heart -->
  <path fill="#6cb89a" d="M46 46c-2-2.5-5-4-5-7.5 0-2 1.5-3.5 3.5-3.5 1.4 0 2.6.8 3.2 2 .6-1.2 1.8-2 3.2-2 2 0 3.5 1.5 3.5 3.5 0 3.5-3 5-5 7.5z"/>
</svg>
